<?xml version="1.0" encoding="UTF-8" standalone="no"?>
<!-- Created with Inkscape (http://www.inkscape.org/) -->

<svg
   xmlns:dc="http://purl.org/dc/elements/1.1/"
   xmlns:cc="http://creativecommons.org/ns#"
   xmlns:rdf="http://www.w3.org/1999/02/22-rdf-syntax-ns#"
   xmlns:svg="http://www.w3.org/2000/svg"
   xmlns="http://www.w3.org/2000/svg"
   xmlns:sodipodi="http://sodipodi.sourceforge.net/DTD/sodipodi-0.dtd"
   xmlns:inkscape="http://www.inkscape.org/namespaces/inkscape"
   width="96.730003mm"
   height="9.6197872mm"
   viewBox="0 0 96.729997 9.6197882"
   version="1.1"
   id="svg8"
   sodipodi:docname="1 English series 1 - 16.svg"
   inkscape:export-filename="C:\Users\j\Documents\Web Design\Practice Websites\FreudTexts\1 English series 1 - 16.png"
   inkscape:export-xdpi="245.05702"
   inkscape:export-ydpi="245.05702"
   inkscape:version="0.92.3 (2405546, 2018-03-11)">
  <defs
     id="defs2" />
  <sodipodi:namedview
     id="base"
     pagecolor="#224646"
     bordercolor="#666666"
     borderopacity="1.0"
     inkscape:pageopacity="0"
     inkscape:pageshadow="2"
     inkscape:zoom="1.979899"
     inkscape:cx="184.94936"
     inkscape:cy="78.060117"
     inkscape:document-units="mm"
     inkscape:current-layer="text12-5"
     showgrid="true"
     showguides="false"
     fit-margin-top="0"
     fit-margin-left="0"
     fit-margin-right="0"
     fit-margin-bottom="0"
     inkscape:window-width="1366"
     inkscape:window-height="705"
     inkscape:window-x="-8"
     inkscape:window-y="-8"
     inkscape:window-maximized="1">
    <inkscape:grid
       type="xygrid"
       id="grid3741"
       snapvisiblegridlinesonly="false"
       color="#3f3f16"
       opacity="0.1254902"
       originx="-11.681603"
       originy="-239.98277" />
  </sodipodi:namedview>
  <metadata
     id="metadata5">
    <rdf:RDF>
      <cc:Work
         rdf:about="">
        <dc:format>image/svg+xml</dc:format>
        <dc:type
           rdf:resource="http://purl.org/dc/dcmitype/StillImage" />
        <dc:title></dc:title>
      </cc:Work>
    </rdf:RDF>
  </metadata>
  <g
     inkscape:label="Layer 1"
     inkscape:groupmode="layer"
     id="layer1"
     transform="translate(-11.681605,-47.397567)">
    <text
       xml:space="preserve"
       style="font-style:normal;font-variant:normal;font-weight:normal;font-stretch:normal;font-size:5.64444447px;line-height:1.25;font-family:'Times New Roman';-inkscape-font-specification:'Times New Roman, ';letter-spacing:0px;word-spacing:0px;fill:#000000;fill-opacity:1;stroke:none;stroke-width:0.26458332"
       x="13.040178"
       y="35.629463"
       id="text16"><tspan
         sodipodi:role="line"
         id="tspan14"
         x="13.040178"
         y="40.639591"
         style="stroke-width:0.26458332" /></text>
    <text
       xml:space="preserve"
       style="font-style:normal;font-variant:normal;font-weight:normal;font-stretch:normal;font-size:5.64444447px;line-height:1.25;font-family:'Times New Roman';-inkscape-font-specification:'Times New Roman, ';letter-spacing:0px;word-spacing:0px;fill:#000000;fill-opacity:1;stroke:none;stroke-width:0.26458332"
       x="42.333332"
       y="42.735416"
       id="text3805"><tspan
         sodipodi:role="line"
         id="tspan3803"
         x="42.333332"
         y="47.745544"
         style="stroke-width:0.26458332" /></text>
    <flowRoot
       xml:space="preserve"
       id="flowRoot4660"
       style="font-style:normal;font-variant:normal;font-weight:normal;font-stretch:normal;font-size:21.33333397px;line-height:1.25;font-family:'Times New Roman';-inkscape-font-specification:'Times New Roman, ';letter-spacing:0px;word-spacing:0px;fill:#223221;fill-opacity:0.14509804;stroke:none"
       transform="matrix(0.26458333,0,0,0.26458333,12.099175,23.778631)"><flowRegion
         id="flowRegion4662"
         style="fill:#223221;fill-opacity:0.14509804"><rect
           id="rect4664"
           width="21.718279"
           height="50.002552"
           x="346.48233"
           y="114.68969"
           style="fill:#223221;fill-opacity:0.14509804" /></flowRegion><flowPara
         id="flowPara4666" /></flowRoot>    <flowRoot
       xml:space="preserve"
       id="flowRoot4670"
       style="font-style:normal;font-variant:normal;font-weight:normal;font-stretch:normal;font-size:21.33333397px;line-height:1.25;font-family:'Times New Roman';-inkscape-font-specification:'Times New Roman, ';letter-spacing:0px;word-spacing:0px;fill:#000000;fill-opacity:1;stroke:none"
       transform="matrix(0.26458333,0,0,0.26458333,12.099175,23.778631)"><flowRegion
         id="flowRegion4672"><rect
           id="rect4674"
           width="392.94934"
           height="66.670067"
           x="-3.0304577"
           y="-4.5083117" /></flowRegion><flowPara
         id="flowPara4676" /></flowRoot>    <g
       aria-label="1     2     3     4     5     6     7      8    9      10     11    12    13     14     15    16 "
       style="font-style:normal;font-variant:normal;font-weight:normal;font-stretch:normal;font-size:4.23333311px;line-height:1.25;font-family:'Open Sans Condensed';-inkscape-font-specification:'Open Sans Condensed, ';letter-spacing:0px;word-spacing:0px;fill:#dfddfe;fill-opacity:1;stroke:none;stroke-width:0.26458332"
       id="text12-5">
      <path
         d="m 12.541501,50.463013 h -0.198438 v -2.222087 q 0,-0.270784 0.01654,-0.584977 -0.04341,0.05788 -0.202572,0.217041 l -0.258382,0.235645 -0.10542,-0.130225 0.58291,-0.537435 h 0.165365 z"
         style="font-style:normal;font-variant:normal;font-weight:normal;font-stretch:normal;font-size:4.23333311px;font-family:'Open Sans Condensed';-inkscape-font-specification:'Open Sans Condensed, ';fill:#dfddfe;fill-opacity:1;stroke-width:0.26458332"
         id="path440" />
      <path
         d="m 18.653789,50.463013 h -1.353923 v -0.161231 l 0.609782,-0.921907 q 0.28112,-0.427881 0.376204,-0.686263 0.09715,-0.258382 0.09715,-0.576709 0,-0.243913 -0.12609,-0.388607 -0.126091,-0.144694 -0.343132,-0.144694 -0.142627,0 -0.250114,0.04341 -0.10542,0.04134 -0.212907,0.126091 l -0.109554,-0.15503 q 0.144694,-0.109554 0.276986,-0.155029 0.134359,-0.04547 0.307992,-0.04547 0.312125,0 0.485758,0.194303 0.173633,0.194304 0.173633,0.525033 0,0.227376 -0.05168,0.427881 -0.04961,0.200504 -0.142627,0.39274 -0.09095,0.192237 -0.303857,0.500228 l -0.556038,0.822689 v 0.01654 h 1.122412 z"
         style="font-style:normal;font-variant:normal;font-weight:normal;font-stretch:normal;font-size:4.23333311px;font-family:'Open Sans Condensed';-inkscape-font-specification:'Open Sans Condensed, ';fill:#dfddfe;fill-opacity:1;stroke-width:0.26458332"
         id="path442" />
      <path
         d="m 24.249312,48.112769 q 0,0.283187 -0.121956,0.481624 -0.121957,0.19637 -0.367936,0.285254 v 0.01654 q 0.254248,0.05581 0.394808,0.254248 0.142626,0.196371 0.142626,0.496094 0,0.392741 -0.200504,0.626318 -0.198438,0.231511 -0.541569,0.231511 -0.347266,0 -0.570508,-0.109554 v -0.223242 q 0.260449,0.150895 0.570508,0.150895 0.252181,0 0.392741,-0.181901 0.14056,-0.183968 0.14056,-0.502295 0,-0.30179 -0.163298,-0.473356 -0.163297,-0.171566 -0.483691,-0.171566 h -0.152962 v -0.190169 h 0.165364 q 0.264583,0 0.427881,-0.183968 0.165365,-0.186035 0.165365,-0.487826 0,-0.258382 -0.117823,-0.405143 -0.115755,-0.146761 -0.326595,-0.146761 -0.142627,0 -0.256315,0.04754 -0.111621,0.04754 -0.252181,0.177767 l -0.12609,-0.132292 q 0.152962,-0.148828 0.30179,-0.210839 0.150895,-0.06408 0.328662,-0.06408 0.297656,0 0.473356,0.19637 0.177767,0.196371 0.177767,0.518832 z"
         style="font-style:normal;font-variant:normal;font-weight:normal;font-stretch:normal;font-size:4.23333311px;font-family:'Open Sans Condensed';-inkscape-font-specification:'Open Sans Condensed, ';fill:#dfddfe;fill-opacity:1;stroke-width:0.26458332"
         id="path444" />
      <path
         d="m 30.113553,49.77675 h -0.322461 v 0.686263 H 29.592655 V 49.77675 h -1.041797 v -0.173633 l 0.99012,-2.197282 h 0.250114 v 2.18488 h 0.322461 z m -0.520898,-0.186035 v -1.459343 q 0,-0.252181 0.01654,-0.491959 h -0.0124 l -0.152963,0.388606 -0.686262,1.562696 z"
         style="font-style:normal;font-variant:normal;font-weight:normal;font-stretch:normal;font-size:4.23333311px;font-family:'Open Sans Condensed';-inkscape-font-specification:'Open Sans Condensed, ';fill:#dfddfe;fill-opacity:1;stroke-width:0.26458332"
         id="path446" />
      <path
         d="m 34.892589,48.834172 q -0.21084,0 -0.427881,0.06201 l -0.101286,-0.130224 0.08888,-1.324984 h 1.023193 v 0.194303 h -0.855762 l -0.07441,1.062468 q 0.186035,-0.04134 0.359668,-0.04134 0.338998,0 0.537435,0.225309 0.198438,0.225309 0.198438,0.620117 0,0.45682 -0.217041,0.729671 -0.217041,0.272852 -0.578776,0.272852 -0.322461,0 -0.504362,-0.113688 v -0.227377 q 0.227376,0.159164 0.496093,0.159164 0.274919,0 0.436149,-0.225309 0.161231,-0.22531 0.161231,-0.587045 0,-0.338997 -0.144694,-0.506429 -0.144694,-0.169498 -0.396875,-0.169498 z"
         style="font-style:normal;font-variant:normal;font-weight:normal;font-stretch:normal;font-size:4.23333311px;font-family:'Open Sans Condensed';-inkscape-font-specification:'Open Sans Condensed, ';fill:#dfddfe;fill-opacity:1;stroke-width:0.26458332"
         id="path448" />
      <path
         d="m 40.008557,49.175236 q 0,-0.907438 0.221175,-1.34152 0.221175,-0.436149 0.655257,-0.436149 0.159164,0 0.262516,0.04754 v 0.198438 q -0.119889,-0.05168 -0.279052,-0.05168 -0.297656,0 -0.467155,0.343132 -0.167432,0.341064 -0.188102,0.996321 h 0.01654 q 0.07028,-0.157096 0.192236,-0.245979 0.121957,-0.08888 0.28112,-0.08888 0.28112,0 0.44235,0.250114 0.163298,0.250114 0.163298,0.68833 0,0.452686 -0.171566,0.711068 -0.171566,0.258382 -0.463021,0.258382 -0.324528,0 -0.496093,-0.341065 -0.169499,-0.341064 -0.169499,-0.988053 z m 0.669727,1.134814 q 0.204638,0 0.314192,-0.190169 0.109554,-0.190169 0.109554,-0.574642 0,-0.367936 -0.107487,-0.562239 -0.107487,-0.196371 -0.320394,-0.196371 -0.206705,0 -0.332796,0.167432 -0.124023,0.167432 -0.124023,0.425814 0,0.258382 0.05788,0.481624 0.05994,0.221175 0.161231,0.334863 0.103353,0.113688 0.241846,0.113688 z"
         style="font-style:normal;font-variant:normal;font-weight:normal;font-stretch:normal;font-size:4.23333311px;font-family:'Open Sans Condensed';-inkscape-font-specification:'Open Sans Condensed, ';fill:#dfddfe;fill-opacity:1;stroke-width:0.26458332"
         id="path450" />
      <path
         d="m 45.868662,50.463013 0.938444,-2.827735 h -1.223698 v -0.194303 h 1.428336 v 0.169499 l -0.932242,2.852539 z"
         style="font-style:normal;font-variant:normal;font-weight:normal;font-stretch:normal;font-size:4.23333311px;font-family:'Open Sans Condensed';-inkscape-font-specification:'Open Sans Condensed, ';fill:#dfddfe;fill-opacity:1;stroke-width:0.26458332"
         id="path452" />
      <path
         d="m 52.774702,47.397567 q 0.285254,0 0.458887,0.186035 0.1757,0.183968 0.1757,0.508496 0,0.500228 -0.496094,0.795817 0.221175,0.148828 0.330729,0.264583 0.109554,0.115756 0.169499,0.254248 0.05994,0.136426 0.05994,0.307992 0,0.345199 -0.192237,0.568441 -0.190169,0.221175 -0.485758,0.221175 -0.318327,0 -0.520899,-0.21084 -0.202571,-0.212907 -0.202571,-0.553971 0,-0.26045 0.111621,-0.463021 0.113688,-0.204639 0.394808,-0.388607 -0.436149,-0.334863 -0.436149,-0.787549 0,-0.312125 0.1757,-0.506429 0.177767,-0.19637 0.456819,-0.19637 z m -0.491959,2.34611 q 0,0.260449 0.136425,0.417545 0.136426,0.157097 0.359668,0.157097 0.219108,0 0.349333,-0.163298 0.132292,-0.165364 0.132292,-0.450618 0,-0.367936 -0.427881,-0.663526 l -0.101286,-0.06821 q -0.250114,0.161231 -0.349333,0.334864 -0.09922,0.171565 -0.09922,0.436149 z m 0.487825,-2.160075 q -0.194303,0 -0.307991,0.138493 -0.111621,0.138493 -0.111621,0.38654 0,0.212906 0.09302,0.37207 0.09302,0.159163 0.326595,0.314193 0.225309,-0.134359 0.326595,-0.303858 0.103353,-0.169499 0.103353,-0.382405 0,-0.248047 -0.113688,-0.38654 -0.111621,-0.138493 -0.31626,-0.138493 z"
         style="font-style:normal;font-variant:normal;font-weight:normal;font-stretch:normal;font-size:4.23333311px;font-family:'Open Sans Condensed';-inkscape-font-specification:'Open Sans Condensed, ';fill:#dfddfe;fill-opacity:1;stroke-width:0.26458332"
         id="path454" />
      <path
         d="m 58.791903,48.689478 q 0,0.903304 -0.227376,1.360123 -0.225309,0.454753 -0.661459,0.454753 -0.07648,0 -0.163297,-0.01447 -0.08475,-0.01447 -0.117822,-0.03101 v -0.198438 q 0.113688,0.04961 0.297656,0.04961 0.299723,0 0.473356,-0.347265 0.173633,-0.347266 0.194303,-0.990121 h -0.01654 q -0.07028,0.157097 -0.192236,0.24598 -0.121957,0.08888 -0.28112,0.08888 -0.283187,0 -0.444417,-0.254248 -0.161231,-0.254248 -0.161231,-0.686263 0,-0.450619 0.173633,-0.709001 0.1757,-0.260449 0.485758,-0.260449 0.31626,0 0.477491,0.334863 0.163297,0.332796 0.163297,0.957048 z m -0.65319,-1.097608 q -0.202572,0 -0.322461,0.192237 -0.117822,0.190169 -0.117822,0.574641 0,0.367937 0.107487,0.564307 0.107487,0.194303 0.320394,0.194303 0.206705,0 0.330729,-0.173632 0.12609,-0.1757 0.12609,-0.467155 0,-0.258382 -0.05581,-0.465088 -0.05374,-0.206706 -0.152962,-0.312126 -0.09922,-0.107487 -0.235645,-0.107487 z"
         style="font-style:normal;font-variant:normal;font-weight:normal;font-stretch:normal;font-size:4.23333311px;font-family:'Open Sans Condensed';-inkscape-font-specification:'Open Sans Condensed, ';fill:#dfddfe;fill-opacity:1;stroke-width:0.26458332"
         id="path456"
         inkscape:connector-curvature="0" />
      <path
         d="m 63.250547,50.463013 h -0.198438 v -2.222087 q 0,-0.270784 0.01654,-0.584977 -0.04341,0.05788 -0.202572,0.217041 l -0.258382,0.235645 -0.10542,-0.130225 0.58291,-0.537435 h 0.165365 z"
         style="font-style:normal;font-variant:normal;font-weight:normal;font-stretch:normal;font-size:4.23333311px;font-family:'Open Sans Condensed';-inkscape-font-specification:'Open Sans Condensed, ';fill:#dfddfe;fill-opacity:1;stroke-width:0.26458332"
         id="path458"
         inkscape:connector-curvature="0" />
      <path
         d="m 65.394083,48.94786 q 0,0.766878 -0.167432,1.161686 -0.165365,0.394808 -0.496094,0.394808 -0.349332,0 -0.506429,-0.363802 -0.155029,-0.365869 -0.155029,-1.192692 0,-1.550293 0.661458,-1.550293 0.343132,0 0.502295,0.384473 0.161231,0.384472 0.161231,1.16582 z m -1.114144,0 q 0,0.682129 0.107487,1.023193 0.109554,0.338997 0.343131,0.338997 0.452686,0 0.452686,-1.36219 0,-1.35599 -0.452686,-1.35599 -0.233577,0 -0.343131,0.334864 -0.107487,0.334863 -0.107487,1.021126 z"
         style="font-style:normal;font-variant:normal;font-weight:normal;font-stretch:normal;font-size:4.23333311px;font-family:'Open Sans Condensed';-inkscape-font-specification:'Open Sans Condensed, ';fill:#dfddfe;fill-opacity:1;stroke-width:0.26458332"
         id="path460"
         inkscape:connector-curvature="0" />
      <path
         d="m 70.609269,50.463013 h -0.198437 v -2.222087 q 0,-0.270784 0.01654,-0.584977 -0.04341,0.05788 -0.202571,0.217041 l -0.258382,0.235645 -0.10542,-0.130225 0.58291,-0.537435 h 0.165364 z"
         style="font-style:normal;font-variant:normal;font-weight:normal;font-stretch:normal;font-size:4.23333311px;font-family:'Open Sans Condensed';-inkscape-font-specification:'Open Sans Condensed, ';fill:#dfddfe;fill-opacity:1;stroke-width:0.26458332"
         id="path462"
         inkscape:connector-curvature="0" />
      <path
         d="M 72.304258,50.463013 H 72.10582 v -2.222087 q 0,-0.270784 0.01654,-0.584977 -0.04341,0.05788 -0.202572,0.217041 l -0.258382,0.235645 -0.10542,-0.130225 0.58291,-0.537435 h 0.165365 z"
         style="font-style:normal;font-variant:normal;font-weight:normal;font-stretch:normal;font-size:4.23333311px;font-family:'Open Sans Condensed';-inkscape-font-specification:'Open Sans Condensed, ';fill:#dfddfe;fill-opacity:1;stroke-width:0.26458332"
         id="path464"
         inkscape:connector-curvature="0" />
      <path
         d="m 77.174245,50.463013 h -0.198437 v -2.222087 q 0,-0.270784 0.01654,-0.584977 -0.04341,0.05788 -0.202572,0.217041 l -0.258382,0.235645 -0.10542,-0.130225 0.582911,-0.537435 h 0.165364 z"
         style="font-style:normal;font-variant:normal;font-weight:normal;font-stretch:normal;font-size:4.23333311px;font-family:'Open Sans Condensed';-inkscape-font-specification:'Open Sans Condensed, ';fill:#dfddfe;fill-opacity:1;stroke-width:0.26458332"
         id="path466"
         inkscape:connector-curvature="0" />
      <path
         d="m 79.317781,50.463013 h -1.353922 v -0.161231 l 0.609781,-0.921907 q 0.28112,-0.427881 0.376205,-0.686263 0.09715,-0.258382 0.09715,-0.576709 0,-0.243913 -0.12609,-0.388607 -0.126091,-0.144694 -0.343132,-0.144694 -0.142626,0 -0.250113,0.04341 -0.10542,0.04134 -0.212907,0.126091 l -0.109554,-0.15503 q 0.144694,-0.109554 0.276985,-0.155029 0.134359,-0.04547 0.307992,-0.04547 0.312125,0 0.485758,0.194303 0.173633,0.194304 0.173633,0.525033 0,0.227376 -0.05168,0.427881 -0.04961,0.200504 -0.142627,0.39274 -0.09095,0.192237 -0.303858,0.500228 l -0.556038,0.822689 v 0.01654 h 1.122412 z"
         style="font-style:normal;font-variant:normal;font-weight:normal;font-stretch:normal;font-size:4.23333311px;font-family:'Open Sans Condensed';-inkscape-font-specification:'Open Sans Condensed, ';fill:#dfddfe;fill-opacity:1;stroke-width:0.26458332"
         id="path468"
         inkscape:connector-curvature="0" />
      <path
         d="M 83.739217,50.463013 H 83.54078 v -2.222087 q 0,-0.270784 0.01654,-0.584977 -0.04341,0.05788 -0.202572,0.217041 l -0.258382,0.235645 -0.10542,-0.130225 0.58291,-0.537435 h 0.165365 z"
         style="font-style:normal;font-variant:normal;font-weight:normal;font-stretch:normal;font-size:4.23333311px;font-family:'Open Sans Condensed';-inkscape-font-specification:'Open Sans Condensed, ';fill:#dfddfe;fill-opacity:1;stroke-width:0.26458332"
         id="path470"
         inkscape:connector-curvature="0" />
      <path
         d="m 85.81454,48.112769 q 0,0.283187 -0.121956,0.481624 -0.121957,0.19637 -0.367937,0.285254 v 0.01654 q 0.254248,0.05581 0.394808,0.254248 0.142627,0.196371 0.142627,0.496094 0,0.392741 -0.200504,0.626318 -0.198438,0.231511 -0.541569,0.231511 -0.347266,0 -0.570508,-0.109554 v -0.223242 q 0.260449,0.150895 0.570508,0.150895 0.252181,0 0.392741,-0.181901 0.14056,-0.183968 0.14056,-0.502295 0,-0.30179 -0.163298,-0.473356 -0.163298,-0.171566 -0.483691,-0.171566 H 84.853358 V 48.80317 h 0.165365 q 0.264583,0 0.427881,-0.183968 0.165364,-0.186035 0.165364,-0.487826 0,-0.258382 -0.117822,-0.405143 -0.115755,-0.146761 -0.326595,-0.146761 -0.142627,0 -0.256315,0.04754 -0.111621,0.04754 -0.252181,0.177767 l -0.12609,-0.132292 q 0.152962,-0.148828 0.30179,-0.210839 0.150895,-0.06408 0.328662,-0.06408 0.297656,0 0.473356,0.19637 0.177767,0.196371 0.177767,0.518831 z"
         style="font-style:normal;font-variant:normal;font-weight:normal;font-stretch:normal;font-size:4.23333311px;font-family:'Open Sans Condensed';-inkscape-font-specification:'Open Sans Condensed, ';fill:#dfddfe;fill-opacity:1;stroke-width:0.26458332"
         id="path472"
         inkscape:connector-curvature="0" />
      <path
         d="m 91.097944,50.463013 h -0.198438 v -2.222087 q 0,-0.270784 0.01654,-0.584977 -0.04341,0.05788 -0.202572,0.217041 l -0.258382,0.235645 -0.10542,-0.130225 0.58291,-0.537435 h 0.165365 z"
         style="font-style:normal;font-variant:normal;font-weight:normal;font-stretch:normal;font-size:4.23333311px;font-family:'Open Sans Condensed';-inkscape-font-specification:'Open Sans Condensed, ';fill:#dfddfe;fill-opacity:1;stroke-width:0.26458332"
         id="path474"
         inkscape:connector-curvature="0" />
      <path
         d="M 93.373771,49.77675 H 93.05131 v 0.686263 H 92.852873 V 49.77675 h -1.041797 v -0.173633 l 0.99012,-2.197282 h 0.250114 v 2.18488 h 0.322461 z m -0.520898,-0.186035 v -1.459343 q 0,-0.252181 0.01654,-0.491959 h -0.0124 l -0.152962,0.388606 -0.686263,1.562696 z"
         style="font-style:normal;font-variant:normal;font-weight:normal;font-stretch:normal;font-size:4.23333311px;font-family:'Open Sans Condensed';-inkscape-font-specification:'Open Sans Condensed, ';fill:#dfddfe;fill-opacity:1;stroke-width:0.26458332"
         id="path476"
         inkscape:connector-curvature="0" />
      <path
         d="m 98.456662,50.463013 h -0.198437 v -2.222087 q 0,-0.270784 0.01654,-0.584977 -0.04341,0.05788 -0.202571,0.217041 l -0.258382,0.235645 -0.10542,-0.130225 0.58291,-0.537435 h 0.165364 z"
         style="font-style:normal;font-variant:normal;font-weight:normal;font-stretch:normal;font-size:4.23333311px;font-family:'Open Sans Condensed';-inkscape-font-specification:'Open Sans Condensed, ';fill:#dfddfe;fill-opacity:1;stroke-width:0.26458332"
         id="path478"
         inkscape:connector-curvature="0" />
      <path
         d="m 99.847793,48.834172 q -0.21084,0 -0.427877,0.06201 l -0.10129,-0.130224 0.0889,-1.324984 h 1.023184 v 0.194303 h -0.855757 l -0.0744,1.062468 q 0.18603,-0.04134 0.35966,-0.04134 0.338997,0 0.537437,0.225309 0.19844,0.225309 0.19844,0.620117 0,0.45682 -0.21705,0.729671 -0.21704,0.272852 -0.578767,0.272852 -0.32246,0 -0.504357,-0.113688 v -0.227377 q 0.227367,0.159164 0.496087,0.159164 0.274917,0 0.436147,-0.225309 0.16123,-0.22531 0.16123,-0.587045 0,-0.338997 -0.14469,-0.506429 -0.1447,-0.169498 -0.396877,-0.169498 z"
         style="font-style:normal;font-variant:normal;font-weight:normal;font-stretch:normal;font-size:4.23333311px;font-family:'Open Sans Condensed';-inkscape-font-specification:'Open Sans Condensed, ';fill:#dfddfe;fill-opacity:1;stroke-width:0.26458332"
         id="path480"
         inkscape:connector-curvature="0" />
      <path
         d="m 105.02163,50.463013 h -0.19844 v -2.222087 q 0,-0.270784 0.0165,-0.584977 -0.0434,0.05788 -0.20257,0.217041 l -0.25839,0.235645 -0.10542,-0.130225 0.58291,-0.537435 h 0.16537 z"
         style="font-style:normal;font-variant:normal;font-weight:normal;font-stretch:normal;font-size:4.23333311px;font-family:'Open Sans Condensed';-inkscape-font-specification:'Open Sans Condensed, ';fill:#dfddfe;fill-opacity:1;stroke-width:0.26458332"
         id="path482"
         inkscape:connector-curvature="0" />
      <path
         d="m 105.86499,49.175236 q 0,-0.907438 0.22118,-1.34152 0.22117,-0.436149 0.65526,-0.436149 0.15916,0 0.26251,0.04754 v 0.198438 q -0.11989,-0.05168 -0.27905,-0.05168 -0.29766,0 -0.46716,0.343132 -0.16743,0.341064 -0.1881,0.996321 h 0.0165 q 0.0703,-0.157096 0.19223,-0.245979 0.12196,-0.08888 0.28112,-0.08888 0.28112,0 0.44235,0.250114 0.1633,0.250114 0.1633,0.68833 0,0.452686 -0.17156,0.711068 -0.17157,0.258382 -0.46302,0.258382 -0.32453,0 -0.4961,-0.341065 -0.1695,-0.341064 -0.1695,-0.988053 z m 0.66973,1.134814 q 0.20464,0 0.31419,-0.190169 0.10956,-0.190169 0.10956,-0.574642 0,-0.367936 -0.10749,-0.562239 -0.10749,-0.196371 -0.32039,-0.196371 -0.20671,0 -0.3328,0.167432 -0.12402,0.167432 -0.12402,0.425814 0,0.258382 0.0579,0.481624 0.06,0.221175 0.16123,0.334863 0.10336,0.113688 0.24185,0.113688 z"
         style="font-style:normal;font-variant:normal;font-weight:normal;font-stretch:normal;font-size:4.23333311px;font-family:'Open Sans Condensed';-inkscape-font-specification:'Open Sans Condensed, ';fill:#dfddfe;fill-opacity:1;stroke-width:0.26458332"
         id="path484"
         inkscape:connector-curvature="0" />
    </g>
    <g
       aria-label="  "
       style="font-style:normal;font-variant:normal;font-weight:normal;font-stretch:normal;font-size:4.23333311px;line-height:1.25;font-family:'Open Sans Condensed';-inkscape-font-specification:'Open Sans Condensed, ';letter-spacing:0px;word-spacing:0px;fill:#dfddfe;fill-opacity:1;stroke:none;stroke-width:0.26458332"
       id="text26-1" />
    <g
       aria-label="c"
       style="font-style:normal;font-variant:normal;font-weight:normal;font-stretch:normal;font-size:4.23333311px;line-height:1.25;font-family:'Open Sans Condensed';-inkscape-font-specification:'Open Sans Condensed, ';letter-spacing:0px;word-spacing:0px;fill:#dfddfe;fill-opacity:1;stroke:none;stroke-width:0.26458332"
       id="text3739-6">
      <path
         d="m 12.3596,56.136194 q -0.33693,0 -0.508496,-0.291455 -0.169499,-0.293523 -0.169499,-0.859896 0,-0.574642 0.171566,-0.874365 0.173633,-0.301791 0.510563,-0.301791 0.208773,0 0.347266,0.07648 l -0.07648,0.173633 q -0.138492,-0.06408 -0.254248,-0.06408 -0.494026,0 -0.494026,0.985987 0,0.977718 0.494026,0.977718 0.146762,0 0.318327,-0.06615 v 0.165364 q -0.06821,0.03721 -0.167431,0.05788 -0.09922,0.02067 -0.171566,0.02067 z"
         style="font-style:normal;font-variant:normal;font-weight:normal;font-stretch:normal;font-size:4.23333311px;font-family:'Open Sans Condensed';-inkscape-font-specification:'Open Sans Condensed, ';fill:#dfddfe;fill-opacity:1;stroke-width:0.26458332"
         id="path436" />
    </g>
    <g
       aria-label="c "
       style="font-style:normal;font-variant:normal;font-weight:normal;font-stretch:normal;font-size:4.23333311px;line-height:1.25;font-family:'Open Sans Condensed';-inkscape-font-specification:'Open Sans Condensed, ';letter-spacing:0px;word-spacing:0px;fill:#dfddfe;fill-opacity:1;stroke:none;stroke-width:0.26458332"
       id="text3745-7">
      <path
         d="m 18.035236,55.974885 q -0.33693,0 -0.508496,-0.291455 -0.169499,-0.293522 -0.169499,-0.859896 0,-0.574641 0.171566,-0.874365 0.173633,-0.30179 0.510563,-0.30179 0.208773,0 0.347266,0.07648 l -0.07648,0.173633 q -0.138493,-0.06408 -0.254248,-0.06408 -0.494027,0 -0.494027,0.985986 0,0.977718 0.494027,0.977718 0.146761,0 0.318327,-0.06614 v 0.165364 q -0.06821,0.03721 -0.167432,0.05788 -0.09922,0.02067 -0.171566,0.02067 z"
         style="font-style:normal;font-variant:normal;font-weight:normal;font-stretch:normal;font-size:4.23333311px;font-family:'Open Sans Condensed';-inkscape-font-specification:'Open Sans Condensed, ';fill:#dfddfe;fill-opacity:1;stroke-width:0.26458332"
         id="path433" />
    </g>
    <g
       aria-label="g"
       style="font-style:normal;font-variant:normal;font-weight:normal;font-stretch:normal;font-size:4.23333311px;line-height:1.25;font-family:'Open Sans Condensed';-inkscape-font-specification:'Open Sans Condensed, ';letter-spacing:0px;word-spacing:0px;fill:#dfddfe;fill-opacity:1;stroke:none;stroke-width:0.26458332"
       id="text3749-1">
      <path
         d="m 24.335931,53.757605 v 0.138493 l -0.305924,0.03514 q 0.06201,0.08062 0.101286,0.231511 0.03927,0.148828 0.03927,0.305924 0,0.326595 -0.148828,0.529167 -0.146761,0.202571 -0.388607,0.202571 h -0.04961 l -0.04341,-0.0041 q -0.09922,0.07028 -0.157096,0.14056 -0.05581,0.07028 -0.05581,0.163298 0,0.09508 0.07441,0.148828 0.07441,0.05168 0.200504,0.05168 h 0.14056 q 0.299723,0 0.465088,0.155029 0.165364,0.15503 0.165364,0.448552 0,0.328662 -0.223242,0.520898 -0.221175,0.192237 -0.584977,0.192237 -0.303857,0 -0.467155,-0.15503 -0.163297,-0.152962 -0.163297,-0.44235 0,-0.21084 0.107487,-0.361735 0.107487,-0.148828 0.33693,-0.235645 -0.103353,-0.04548 -0.167432,-0.12609 -0.06201,-0.08062 -0.06201,-0.192236 0,-0.101286 0.06614,-0.179834 0.06821,-0.08062 0.192237,-0.171566 -0.171566,-0.07855 -0.260449,-0.254248 -0.08682,-0.1757 -0.08682,-0.413412 0,-0.3576 0.150895,-0.564306 0.150896,-0.206706 0.413412,-0.206706 0.14056,0 0.235644,0.04341 z m -1.207161,2.645834 q 0,0.212906 0.109554,0.332796 0.111621,0.119889 0.334863,0.119889 0.276986,0 0.438216,-0.144694 0.163298,-0.144694 0.163298,-0.396875 0,-0.202572 -0.111621,-0.314193 -0.109554,-0.109554 -0.320394,-0.109554 h -0.144694 q -0.202572,0 -0.33693,0.14056 -0.132292,0.142627 -0.132292,0.372071 z m 0.121956,-1.914095 q 0,0.274918 0.101286,0.417545 0.101286,0.14056 0.268718,0.14056 0.359668,0 0.359668,-0.578776 0,-0.279053 -0.09302,-0.436149 -0.09095,-0.157096 -0.26665,-0.157096 -0.179834,0 -0.274919,0.16123 -0.09509,0.161231 -0.09509,0.452686 z"
         style="font-style:normal;font-variant:normal;font-weight:normal;font-stretch:normal;font-size:4.23333311px;font-family:'Open Sans Condensed';-inkscape-font-specification:'Open Sans Condensed, ';fill:#dfddfe;fill-opacity:1;stroke-width:0.26458332"
         id="path430" />
    </g>
    <g
       aria-label="c"
       style="font-style:normal;font-variant:normal;font-weight:normal;font-stretch:normal;font-size:4.23333311px;line-height:1.25;font-family:'Open Sans Condensed';-inkscape-font-specification:'Open Sans Condensed, ';letter-spacing:0px;word-spacing:0px;fill:#dfddfe;fill-opacity:1;stroke:none;stroke-width:0.26458332"
       id="text3753-1">
      <path
         d="m 29.67091,56.041704 q -0.336931,0 -0.508496,-0.291456 -0.169499,-0.293522 -0.169499,-0.859895 0,-0.574642 0.171566,-0.874365 0.173633,-0.301791 0.510563,-0.301791 0.208773,0 0.347265,0.07648 l -0.07648,0.173633 q -0.138493,-0.06408 -0.254248,-0.06408 -0.494026,0 -0.494026,0.985987 0,0.977718 0.494026,0.977718 0.146761,0 0.318327,-0.06615 v 0.165364 q -0.06821,0.03721 -0.167432,0.05788 -0.09922,0.02067 -0.171565,0.02067 z"
         style="font-style:normal;font-variant:normal;font-weight:normal;font-stretch:normal;font-size:4.23333311px;font-family:'Open Sans Condensed';-inkscape-font-specification:'Open Sans Condensed, ';fill:#dfddfe;fill-opacity:1;stroke-width:0.26458332"
         id="path427" />
    </g>
    <g
       aria-label="e"
       style="font-style:normal;font-variant:normal;font-weight:normal;font-stretch:normal;font-size:4.23333311px;line-height:1.25;font-family:'Open Sans Condensed';-inkscape-font-specification:'Open Sans Condensed, ';letter-spacing:0px;word-spacing:0px;fill:#dfddfe;fill-opacity:1;stroke:none;stroke-width:0.26458332"
       id="text3757-4">
      <path
         d="m 35.126845,55.908067 q -0.355534,0 -0.54777,-0.30179 -0.19017,-0.303858 -0.19017,-0.845427 0,-0.574642 0.169499,-0.876432 0.171566,-0.303857 0.49196,-0.303857 0.279052,0 0.440283,0.26665 0.16123,0.264583 0.16123,0.715202 v 0.181901 H 34.58941 q 0.0041,0.489892 0.138493,0.733805 0.134358,0.243913 0.40721,0.243913 0.21084,0 0.444417,-0.138493 v 0.190169 q -0.214974,0.134359 -0.452685,0.134359 z m -0.08888,-2.149739 q -0.405143,0 -0.444417,0.808219 h 0.861963 q 0,-0.370003 -0.113688,-0.589111 -0.111621,-0.219108 -0.303858,-0.219108 z"
         style="font-style:normal;font-variant:normal;font-weight:normal;font-stretch:normal;font-size:4.23333311px;font-family:'Open Sans Condensed';-inkscape-font-specification:'Open Sans Condensed, ';fill:#dfddfe;fill-opacity:1;stroke-width:0.26458332"
         id="path424" />
    </g>
    <g
       aria-label="g"
       style="font-style:normal;font-variant:normal;font-weight:normal;font-stretch:normal;font-size:4.23333311px;line-height:1.25;font-family:'Open Sans Condensed';-inkscape-font-specification:'Open Sans Condensed, ';letter-spacing:0px;word-spacing:0px;fill:#dfddfe;fill-opacity:1;stroke:none;stroke-width:0.26458332"
       id="text3761-4">
      <path
         d="m 41.723987,53.663108 v 0.138493 l -0.305924,0.03514 q 0.06201,0.08062 0.101286,0.231511 0.03927,0.148828 0.03927,0.305924 0,0.326595 -0.148828,0.529167 -0.146762,0.202572 -0.388607,0.202572 h -0.04961 l -0.04341,-0.0041 q -0.09922,0.07028 -0.157096,0.14056 -0.05581,0.07028 -0.05581,0.163298 0,0.09509 0.07441,0.148828 0.07441,0.05168 0.200505,0.05168 h 0.14056 q 0.299723,0 0.465088,0.15503 0.165364,0.155029 0.165364,0.448551 0,0.328662 -0.223242,0.520899 -0.221175,0.192236 -0.584977,0.192236 -0.303857,0 -0.467155,-0.155029 -0.163298,-0.152963 -0.163298,-0.442351 0,-0.21084 0.107487,-0.361735 0.107487,-0.148828 0.336931,-0.235644 -0.103353,-0.04548 -0.167432,-0.126091 -0.06201,-0.08062 -0.06201,-0.192236 0,-0.101286 0.06615,-0.179834 0.06821,-0.08062 0.192237,-0.171566 -0.171566,-0.07855 -0.26045,-0.254248 -0.08682,-0.1757 -0.08682,-0.413411 0,-0.357601 0.150895,-0.564307 0.150895,-0.206706 0.413412,-0.206706 0.140559,0 0.235644,0.04341 z m -1.207161,2.645833 q 0,0.212907 0.109554,0.332796 0.111621,0.119889 0.334863,0.119889 0.276986,0 0.438216,-0.144694 0.163298,-0.144694 0.163298,-0.396875 0,-0.202571 -0.111621,-0.314192 -0.109554,-0.109554 -0.320394,-0.109554 h -0.144694 q -0.202572,0 -0.33693,0.14056 -0.132292,0.142627 -0.132292,0.37207 z m 0.121956,-1.914095 q 0,0.274919 0.101286,0.417545 0.101286,0.14056 0.268717,0.14056 0.359668,0 0.359668,-0.578776 0,-0.279052 -0.09302,-0.436149 -0.09095,-0.157096 -0.266651,-0.157096 -0.179834,0 -0.274918,0.16123 -0.09508,0.161231 -0.09508,0.452686 z"
         style="font-style:normal;font-variant:normal;font-weight:normal;font-stretch:normal;font-size:4.23333311px;font-family:'Open Sans Condensed';-inkscape-font-specification:'Open Sans Condensed, ';fill:#dfddfe;fill-opacity:1;stroke-width:0.26458332"
         id="path421" />
    </g>
    <g
       aria-label="b"
       style="font-style:normal;font-variant:normal;font-weight:normal;font-stretch:normal;font-size:4.23333311px;line-height:1.25;font-family:'Open Sans Condensed';-inkscape-font-specification:'Open Sans Condensed, ';letter-spacing:0px;word-spacing:0px;fill:#dfddfe;fill-opacity:1;stroke:none;stroke-width:0.26458332"
       id="text3765-9">
      <path
         d="m 46.865531,53.762124 q 0.657325,0 0.657325,1.155485 0,0.570508 -0.163298,0.870231 -0.163297,0.297656 -0.471289,0.297656 -0.16123,0 -0.293522,-0.08888 -0.132292,-0.08888 -0.219108,-0.262516 h -0.01654 l -0.02687,0.310058 H 46.171 v -3.216341 h 0.196371 v 0.998389 l -0.0083,0.270784 h 0.01654 q 0.177767,-0.334863 0.489892,-0.334863 z m -0.0083,0.181901 q -0.258382,0 -0.374137,0.227376 -0.115755,0.227377 -0.115755,0.746208 v 0.05168 q 0,0.938444 0.49816,0.938444 0.227377,0 0.338998,-0.241845 0.113688,-0.241846 0.113688,-0.748275 0,-0.485758 -0.109554,-0.729671 -0.109554,-0.243913 -0.3514,-0.243913 z"
         style="font-style:normal;font-variant:normal;font-weight:normal;font-stretch:normal;font-size:4.23333311px;font-family:'Open Sans Condensed';-inkscape-font-specification:'Open Sans Condensed, ';fill:#dfddfe;fill-opacity:1;stroke-width:0.26458332"
         id="path418" />
    </g>
    <g
       aria-label="c"
       style="font-style:normal;font-variant:normal;font-weight:normal;font-stretch:normal;font-size:4.23333311px;line-height:1.25;font-family:'Open Sans Condensed';-inkscape-font-specification:'Open Sans Condensed, ';letter-spacing:0px;word-spacing:0px;fill:#dfddfe;fill-opacity:1;stroke:none;stroke-width:0.26458332"
       id="text3769-7">
      <path
         d="m 52.734403,55.893106 q -0.33693,0 -0.508496,-0.291455 -0.169498,-0.293522 -0.169498,-0.859896 0,-0.574642 0.171565,-0.874365 0.173633,-0.301791 0.510564,-0.301791 0.208772,0 0.347265,0.07648 l -0.07648,0.173632 q -0.138493,-0.06408 -0.254248,-0.06408 -0.494027,0 -0.494027,0.985986 0,0.977718 0.494027,0.977718 0.146761,0 0.318327,-0.06615 v 0.165365 q -0.06821,0.03721 -0.167432,0.05788 -0.09922,0.02067 -0.171566,0.02067 z"
         style="font-style:normal;font-variant:normal;font-weight:normal;font-stretch:normal;font-size:4.23333311px;font-family:'Open Sans Condensed';-inkscape-font-specification:'Open Sans Condensed, ';fill:#dfddfe;fill-opacity:1;stroke-width:0.26458332"
         id="path415" />
    </g>
    <g
       aria-label="d"
       style="font-style:normal;font-variant:normal;font-weight:normal;font-stretch:normal;font-size:4.23333311px;line-height:1.25;font-family:'Open Sans Condensed';-inkscape-font-specification:'Open Sans Condensed, ';letter-spacing:0px;word-spacing:0px;fill:#dfddfe;fill-opacity:1;stroke:none;stroke-width:0.26458332"
       id="text3773-0"
       transform="translate(0.52916667)">
      <path
         d="m 57.748662,55.962602 q -0.65319,0 -0.65319,-1.159619 0,-0.570508 0.163298,-0.868164 0.163297,-0.299723 0.481624,-0.299723 0.150895,0 0.285254,0.08682 0.136426,0.08682 0.217041,0.239779 h 0.01654 l -0.0083,-0.250114 V 52.70492 H 58.4473 v 3.216341 h -0.161231 l -0.01654,-0.314193 h -0.0186 q -0.08062,0.171566 -0.208773,0.264583 -0.128157,0.09095 -0.293522,0.09095 z m 0.0124,-0.171566 q 0.235644,0 0.361735,-0.217041 0.128157,-0.219108 0.128157,-0.642855 v -0.128157 q 0,-0.508496 -0.124023,-0.744141 -0.121957,-0.237711 -0.374138,-0.237711 -0.241845,0 -0.347265,0.254248 -0.10542,0.252181 -0.10542,0.731738 0,0.483691 0.109554,0.733805 0.109554,0.250114 0.3514,0.250114 z"
         style="font-style:normal;font-variant:normal;font-weight:normal;font-stretch:normal;font-size:4.23333311px;font-family:'Open Sans Condensed';-inkscape-font-specification:'Open Sans Condensed, ';fill:#dfddfe;fill-opacity:1;stroke-width:0.26458332"
         id="path412"
         inkscape:connector-curvature="0" />
    </g>
    <g
       aria-label="e"
       style="font-style:normal;font-variant:normal;font-weight:normal;font-stretch:normal;font-size:4.23333311px;line-height:1.25;font-family:'Open Sans Condensed';-inkscape-font-specification:'Open Sans Condensed, ';letter-spacing:0px;word-spacing:0px;fill:#dfddfe;fill-opacity:1;stroke:none;stroke-width:0.26458332"
       id="text3777-1"
       transform="translate(-1.0583333)">
      <path
         d="m 65.384894,55.893106 q -0.355534,0 -0.54777,-0.301791 -0.19017,-0.303857 -0.19017,-0.845426 0,-0.574642 0.169499,-0.876432 0.171566,-0.303858 0.49196,-0.303858 0.279052,0 0.440283,0.266651 0.16123,0.264583 0.16123,0.715202 v 0.181901 h -1.062467 q 0.0041,0.489892 0.138493,0.733805 0.134358,0.243913 0.40721,0.243913 0.21084,0 0.444417,-0.138493 v 0.190169 q -0.214974,0.134359 -0.452685,0.134359 z m -0.08888,-2.14974 q -0.405143,0 -0.444417,0.80822 h 0.861963 q 0,-0.370004 -0.113688,-0.589112 -0.111621,-0.219108 -0.303858,-0.219108 z"
         style="font-style:normal;font-variant:normal;font-weight:normal;font-stretch:normal;font-size:4.23333311px;font-family:'Open Sans Condensed';-inkscape-font-specification:'Open Sans Condensed, ';fill:#dfddfe;fill-opacity:1;stroke-width:0.26458332"
         id="path409"
         inkscape:connector-curvature="0" />
    </g>
    <g
       aria-label="f"
       style="font-style:normal;font-variant:normal;font-weight:normal;font-stretch:normal;font-size:4.23333311px;line-height:1.25;font-family:'Open Sans Condensed';-inkscape-font-specification:'Open Sans Condensed, ';letter-spacing:0px;word-spacing:0px;fill:#dfddfe;fill-opacity:1;stroke:none;stroke-width:0.26458332"
       id="text3781-8"
       transform="translate(-1.0583333)">
      <path
         d="m 72.670394,53.961596 h -0.3514 v 2.069124 h -0.194303 v -2.069124 h -0.285254 v -0.111622 l 0.285254,-0.08475 v -0.169499 q 0,-0.42788 0.101286,-0.615983 0.101285,-0.188102 0.351399,-0.188102 0.144694,0 0.262517,0.05168 l -0.06821,0.181901 q -0.109554,-0.05168 -0.198438,-0.05168 -0.101286,0 -0.152962,0.05994 -0.05168,0.05994 -0.07648,0.194303 -0.02481,0.134359 -0.02481,0.372071 v 0.188102 h 0.3514 z"
         style="font-style:normal;font-variant:normal;font-weight:normal;font-stretch:normal;font-size:4.23333311px;font-family:'Open Sans Condensed';-inkscape-font-specification:'Open Sans Condensed, ';fill:#dfddfe;fill-opacity:1;stroke-width:0.26458332"
         id="path406"
         inkscape:connector-curvature="0" />
    </g>
    <g
       aria-label="g"
       style="font-style:normal;font-variant:normal;font-weight:normal;font-stretch:normal;font-size:4.23333311px;line-height:1.25;font-family:'Open Sans Condensed';-inkscape-font-specification:'Open Sans Condensed, ';letter-spacing:0px;word-spacing:0px;fill:#dfddfe;fill-opacity:1;stroke:none;stroke-width:0.26458332"
       id="text3785-4"
       transform="translate(-1.0583333)">
      <path
         d="m 79.881099,53.721152 v 0.138493 l -0.305924,0.03514 q 0.06201,0.08062 0.101286,0.23151 0.03927,0.148828 0.03927,0.305925 0,0.326595 -0.148828,0.529166 -0.146761,0.202572 -0.388607,0.202572 h -0.04961 l -0.04341,-0.0041 q -0.09922,0.07028 -0.157096,0.14056 -0.05581,0.07028 -0.05581,0.163297 0,0.09508 0.07441,0.148828 0.07441,0.05168 0.200504,0.05168 h 0.14056 q 0.299723,0 0.465088,0.155029 0.165364,0.155029 0.165364,0.448552 0,0.328662 -0.223242,0.520898 -0.221175,0.192236 -0.584977,0.192236 -0.303857,0 -0.467155,-0.155029 -0.163297,-0.152962 -0.163297,-0.44235 0,-0.21084 0.107487,-0.361735 0.107487,-0.148828 0.33693,-0.235645 -0.103353,-0.04547 -0.167432,-0.12609 -0.06201,-0.08062 -0.06201,-0.192237 0,-0.101285 0.06615,-0.179834 0.06821,-0.08062 0.192237,-0.171565 -0.171566,-0.07855 -0.26045,-0.254248 -0.08682,-0.1757 -0.08682,-0.413412 0,-0.357601 0.150895,-0.564306 0.150895,-0.206706 0.413412,-0.206706 0.14056,0 0.235644,0.04341 z m -1.207161,2.645833 q 0,0.212907 0.109554,0.332797 0.111621,0.119889 0.334863,0.119889 0.276986,0 0.438216,-0.144694 0.163298,-0.144694 0.163298,-0.396875 0,-0.202572 -0.111621,-0.314193 -0.109554,-0.109554 -0.320394,-0.109554 H 79.14316 q -0.202572,0 -0.33693,0.14056 -0.132292,0.142627 -0.132292,0.37207 z m 0.121956,-1.914095 q 0,0.274919 0.101286,0.417546 0.101286,0.14056 0.268718,0.14056 0.359668,0 0.359668,-0.578776 0,-0.279053 -0.09302,-0.436149 -0.09095,-0.157097 -0.26665,-0.157097 -0.179834,0 -0.274919,0.161231 -0.09508,0.16123 -0.09508,0.452685 z"
         style="font-style:normal;font-variant:normal;font-weight:normal;font-stretch:normal;font-size:4.23333311px;font-family:'Open Sans Condensed';-inkscape-font-specification:'Open Sans Condensed, ';fill:#dfddfe;fill-opacity:1;stroke-width:0.26458332"
         id="path403"
         inkscape:connector-curvature="0" />
    </g>
    <g
       aria-label="a"
       style="font-style:normal;font-variant:normal;font-weight:normal;font-stretch:normal;font-size:4.23333311px;line-height:1.25;font-family:'Open Sans Condensed';-inkscape-font-specification:'Open Sans Condensed, ';letter-spacing:0px;word-spacing:0px;fill:#dfddfe;fill-opacity:1;stroke:none;stroke-width:0.26458332"
       id="text3789-0"
       transform="translate(-1.0583333)">
      <path
         d="m 85.994685,56.049526 -0.02481,-0.314192 h -0.0083 q -0.161231,0.355533 -0.487826,0.355533 -0.219108,0 -0.353466,-0.173632 -0.132292,-0.1757 -0.132292,-0.469222 0,-0.320394 0.192236,-0.506429 0.192237,-0.188103 0.539502,-0.204639 l 0.241846,-0.0124 v -0.186036 q 0,-0.314192 -0.07855,-0.456819 -0.07855,-0.144694 -0.260449,-0.144694 -0.192237,0 -0.392741,0.12609 l -0.08475,-0.155029 q 0.233578,-0.144694 0.489893,-0.144694 0.276986,0 0.398942,0.1757 0.121956,0.173633 0.121956,0.58291 v 1.527555 z m -0.47749,-0.12609 q 0.210839,0 0.326595,-0.206706 0.117822,-0.208773 0.117822,-0.589111 v -0.233578 l -0.233578,0.0124 q -0.270784,0.01447 -0.403076,0.150895 -0.130224,0.134358 -0.130224,0.394808 0,0.243912 0.08682,0.357601 0.08682,0.113688 0.235645,0.113688 z"
         style="font-style:normal;font-variant:normal;font-weight:normal;font-stretch:normal;font-size:4.23333311px;font-family:'Open Sans Condensed';-inkscape-font-specification:'Open Sans Condensed, ';fill:#dfddfe;fill-opacity:1;stroke-width:0.26458332"
         id="path400"
         inkscape:connector-curvature="0" />
    </g>
    <g
       aria-label="b"
       style="font-style:normal;font-variant:normal;font-weight:normal;font-stretch:normal;font-size:4.23333311px;line-height:1.25;font-family:'Open Sans Condensed';-inkscape-font-specification:'Open Sans Condensed, ';letter-spacing:0px;word-spacing:0px;fill:#dfddfe;fill-opacity:1;stroke:none;stroke-width:0.26458332"
       id="text3793-2"
       transform="translate(-1.0583333)">
      <path
         d="m 93.173324,53.820886 q 0.657324,0 0.657324,1.155485 0,0.570507 -0.163297,0.870231 -0.163298,0.297656 -0.471289,0.297656 -0.161231,0 -0.293522,-0.08888 -0.132292,-0.08888 -0.219109,-0.262516 h -0.01654 l -0.02687,0.310059 h -0.16123 V 52.88658 h 0.19637 v 0.998388 l -0.0083,0.270785 h 0.01654 q 0.177767,-0.334863 0.489893,-0.334863 z m -0.0083,0.181901 q -0.258382,0 -0.374138,0.227376 -0.115755,0.227376 -0.115755,0.746208 v 0.05168 q 0,0.938444 0.498161,0.938444 0.227376,0 0.338997,-0.241846 0.113689,-0.241845 0.113689,-0.748274 0,-0.485759 -0.109554,-0.729672 -0.109555,-0.243912 -0.3514,-0.243912 z"
         style="font-style:normal;font-variant:normal;font-weight:normal;font-stretch:normal;font-size:4.23333311px;font-family:'Open Sans Condensed';-inkscape-font-specification:'Open Sans Condensed, ';fill:#dfddfe;fill-opacity:1;stroke-width:0.26458332"
         id="path397"
         inkscape:connector-curvature="0" />
    </g>
    <g
       aria-label="b"
       style="font-style:normal;font-variant:normal;font-weight:normal;font-stretch:normal;font-size:4.23333311px;line-height:1.25;font-family:'Open Sans Condensed';-inkscape-font-specification:'Open Sans Condensed, ';letter-spacing:0px;word-spacing:0px;fill:#dfddfe;fill-opacity:1;stroke:none;stroke-width:0.26458332"
       id="text3797-2"
       transform="translate(-1.0583333)">
      <path
         d="m 100.11393,53.8182 q 0.65732,0 0.65732,1.155485 0,0.570508 -0.16329,0.870231 -0.1633,0.297656 -0.47129,0.297656 -0.161234,0 -0.293525,-0.08888 -0.132292,-0.08888 -0.219108,-0.262516 H 99.6075 l -0.02687,0.310058 H 99.4194 V 52.88389 h 0.19637 v 0.998389 l -0.0083,0.270784 h 0.01654 Q 99.801804,53.8182 100.11393,53.8182 Z m -0.008,0.181901 q -0.258381,0 -0.374136,0.227376 -0.115756,0.227377 -0.115756,0.746208 v 0.05168 q 0,0.938444 0.498162,0.938444 0.22738,0 0.339,-0.241845 0.11368,-0.241846 0.11368,-0.748275 0,-0.485758 -0.10955,-0.729671 -0.10955,-0.243913 -0.3514,-0.243913 z"
         style="font-style:normal;font-variant:normal;font-weight:normal;font-stretch:normal;font-size:4.23333311px;font-family:'Open Sans Condensed';-inkscape-font-specification:'Open Sans Condensed, ';fill:#dfddfe;fill-opacity:1;stroke-width:0.26458332"
         id="path394"
         inkscape:connector-curvature="0" />
    </g>
    <g
       aria-label="c"
       style="font-style:normal;font-variant:normal;font-weight:normal;font-stretch:normal;font-size:4.23333311px;line-height:1.25;font-family:'Open Sans Condensed';-inkscape-font-specification:'Open Sans Condensed, ';letter-spacing:0px;word-spacing:0px;fill:#dfddfe;fill-opacity:1;stroke:none;stroke-width:0.26458332"
       id="text3801-7"
       transform="translate(-1.0583333)">
      <path
         d="m 107.13457,55.868921 q -0.33694,0 -0.5085,-0.291455 -0.1695,-0.293523 -0.1695,-0.859896 0,-0.574642 0.17157,-0.874365 0.17363,-0.301791 0.51056,-0.301791 0.20877,0 0.34726,0.07648 l -0.0765,0.173633 q -0.13849,-0.06408 -0.25424,-0.06408 -0.49403,0 -0.49403,0.985987 0,0.977718 0.49403,0.977718 0.14676,0 0.31832,-0.06615 v 0.165364 q -0.0682,0.03721 -0.16743,0.05788 -0.0992,0.02067 -0.17156,0.02067 z"
         style="font-style:normal;font-variant:normal;font-weight:normal;font-stretch:normal;font-size:4.23333311px;font-family:'Open Sans Condensed';-inkscape-font-specification:'Open Sans Condensed, ';fill:#dfddfe;fill-opacity:1;stroke-width:0.26458332"
         id="path391"
         inkscape:connector-curvature="0" />
    </g>
    <g
       aria-label="♭"
       transform="scale(0.98975847,1.0103475)"
       style="font-style:normal;font-variant:normal;font-weight:normal;font-stretch:normal;font-size:4.23333311px;line-height:1.25;font-family:'Open Sans Condensed';-inkscape-font-specification:'Open Sans Condensed, ';letter-spacing:0px;word-spacing:0px;fill:#dfddfe;fill-opacity:1;stroke:none;stroke-width:0.22304432"
       id="text3835-2">
      <path
         d="m 48.556935,50.754286 h 0.09302 l 0.01033,0.0124 v 1.986442 h 0.0062 q 0.351399,-0.489893 0.651123,-0.489893 0.469222,0.0062 0.510563,0.537435 -0.05994,0.878499 -1.277442,1.0604 l -0.0062,-0.0062 v -3.088183 z m 0.103352,2.22002 v 0.733805 q 0.86403,-0.204639 0.86403,-0.835091 0.0021,-0.02687 0.0021,-0.05168 0,-0.305925 -0.307991,-0.322461 -0.24598,0 -0.558106,0.475423 z"
         style="font-style:normal;font-variant:normal;font-weight:normal;font-stretch:normal;font-size:4.23333311px;font-family:'Open Sans Condensed';-inkscape-font-specification:'Open Sans Condensed, ';fill:#dfddfe;fill-opacity:1;stroke-width:0.22304432"
         id="path388" />
    </g>
    <g
       aria-label="♭"
       transform="matrix(0.98975847,0,0,1.0103475,-1.0583333,0)"
       style="font-style:normal;font-variant:normal;font-weight:normal;font-stretch:normal;font-size:4.23333311px;line-height:1.25;font-family:'Open Sans Condensed';-inkscape-font-specification:'Open Sans Condensed, ';letter-spacing:0px;word-spacing:0px;fill:#dfddfe;fill-opacity:1;stroke:none;stroke-width:0.22304432"
       id="text3835-4-8">
      <path
         d="m 102.40333,51.123847 h 0.093 l 0.0103,0.0124 v 1.986442 h 0.006 q 0.3514,-0.489893 0.65112,-0.489893 0.46922,0.0062 0.51056,0.537435 -0.0599,0.8785 -1.27744,1.060401 l -0.006,-0.0062 v -3.088183 z m 0.10335,2.220019 v 0.733805 q 0.86403,-0.204638 0.86403,-0.835091 0.002,-0.02687 0.002,-0.05168 0,-0.305925 -0.30799,-0.322461 -0.24598,0 -0.55811,0.475423 z"
         style="font-style:normal;font-variant:normal;font-weight:normal;font-stretch:normal;font-size:4.23333311px;font-family:'Open Sans Condensed';-inkscape-font-specification:'Open Sans Condensed, ';fill:#dfddfe;fill-opacity:1;stroke-width:0.22304432"
         id="path385"
         inkscape:connector-curvature="0" />
    </g>
    <flowRoot
       xml:space="preserve"
       id="flowRoot4810"
       style="font-style:normal;font-variant:normal;font-weight:normal;font-stretch:normal;font-size:21.33333397px;line-height:1.25;font-family:'Times New Roman';-inkscape-font-specification:'Times New Roman, ';letter-spacing:0px;word-spacing:0px;fill:#000000;fill-opacity:1;stroke:none"
       transform="matrix(0.26458333,0,0,0.26458333,11.681605,47.432707)"><flowRegion
         id="flowRegion4812"><rect
           id="rect4814"
           width="449"
           height="67"
           x="-11.150951"
           y="-99.753372" /></flowRegion><flowPara
         id="flowPara4816" /></flowRoot>    <flowRoot
       xml:space="preserve"
       id="flowRoot377"
       style="fill:black;fill-opacity:1;stroke:none;font-family:'Times New Roman';font-style:normal;font-weight:normal;font-size:21.33333333px;line-height:1.25;letter-spacing:0px;word-spacing:0px;-inkscape-font-specification:'Times New Roman, ';font-stretch:normal;font-variant:normal"><flowRegion
         id="flowRegion379"><rect
           id="rect381"
           width="535"
           height="156"
           x="-27.15094"
           y="-48.620258" /></flowRegion><flowPara
         id="flowPara383"></flowPara></flowRoot>  </g>
</svg>
